<?xml version="1.0" encoding="UTF-8" standalone="no"?>
<svg
   xmlns:dc="http://purl.org/dc/elements/1.1/"
   xmlns:cc="http://creativecommons.org/ns#"
   xmlns:rdf="http://www.w3.org/1999/02/22-rdf-syntax-ns#"
   xmlns:svg="http://www.w3.org/2000/svg"
   xmlns="http://www.w3.org/2000/svg"
   xmlns:sodipodi="http://sodipodi.sourceforge.net/DTD/sodipodi-0.dtd"
   xmlns:inkscape="http://www.inkscape.org/namespaces/inkscape"
   id="svg2"
   viewBox="0 0 284.22982 66.914659"
   height="18.885mm"
   width="80.216mm"
   version="1.1"
   inkscape:version="0.91 r13725"
   sodipodi:docname="passport-logo.svg">
  <defs
     id="defs19" />
  <sodipodi:namedview
     pagecolor="#ffffff"
     bordercolor="#666666"
     borderopacity="1"
     objecttolerance="10"
     gridtolerance="10"
     guidetolerance="10"
     inkscape:pageopacity="0"
     inkscape:pageshadow="2"
     inkscape:window-width="640"
     inkscape:window-height="480"
     id="namedview17"
     showgrid="false"
     inkscape:zoom="1.0906663"
     inkscape:cx="173.28857"
     inkscape:cy="33.457678"
     inkscape:window-x="36"
     inkscape:window-y="1"
     inkscape:window-maximized="0"
     inkscape:current-layer="svg2" />
  <metadata
     id="metadata7">
    <rdf:RDF>
      <cc:Work
         rdf:about="">
        <dc:format>image/svg+xml</dc:format>
        <dc:type
           rdf:resource="http://purl.org/dc/dcmitype/StillImage" />
        <dc:title />
      </cc:Work>
    </rdf:RDF>
  </metadata>
  <g
     id="layer1"
     transform="translate(-60.857 -492.72)">
    <g
       style="font-size:40px;line-height:125%;font-family:sans-serif;letter-spacing:0px;word-spacing:0px;fill:#000000"
       id="text3336" />
    <g
       style="font-size:90px;line-height:125%;font-family:Rodina;letter-spacing:0px;word-spacing:0px;fill:#000000"
       id="text3344">
      <path
         d="m 60.857136,507.37863 c 5.34,-2.04 8.88,-3.12 16.26,-3.12 9.66,0 17.52,7.86 17.52,17.58 l 0,4.86 c 0,9.72 -7.86,17.58 -17.52,17.58 l -1.44,0 c -2.46,0 -4.8,-0.54 -6.96,-1.44 l 0,15.9 c 0,1.2 -7.86,1.2 -7.86,0 l 0,-51.36 z m 25.92,14.46 c 0,-5.34 -4.32,-9.72 -9.66,-9.72 l -1.44,0 c -3,0.18 -4.74,0.78 -6.96,1.62 l 0,19.74 c 1.8,1.8 4.26,2.94 6.96,2.94 l 1.44,0 c 5.34,0 9.66,-4.38 9.66,-9.72 l 0,-4.86 z"
         style=""
         id="path3349" />
      <path
         d="m 126.6837,542.83863 c -2.16,0.9 -4.5,1.44 -6.96,1.44 l -1.44,0 c -9.78,0 -17.7,-7.92 -17.7,-17.58 l 0,-4.86 c 0,-9.72 7.92,-17.58 17.7,-17.58 7.38,0 10.98,1.08 16.32,3.12 l 0,36 c 0,1.2 -7.92,1.2 -7.92,0 l 0,-0.54 z m 0,-29.1 c -2.22,-0.84 -3.96,-1.44 -6.96,-1.62 l -1.44,0 c -5.4,0 -9.78,4.38 -9.78,9.72 l 0,4.86 c 0,5.34 4.38,9.72 9.78,9.72 l 1.44,0 c 2.7,0 5.22,-1.14 6.96,-2.94 l 0,-19.74 z"
         style=""
         id="path3351" />
      <path
         d="m 152.90182,527.29863 -0.12,-0.06 c -1.26,-0.06 -3.78,-0.48 -6.06,-1.92 -2.58,-1.68 -4.74,-4.62 -4.8,-9 0.06,-4.68 2.34,-7.92 5.52,-9.84 2.88,-1.74 6.3,-2.22 9,-2.22 4.92,0.06 9.12,1.14 12.12,2.46 1.98,0.9 -1.2,8.16 -3.18,7.26 -2.1,-0.9 -5.22,-1.8 -8.94,-1.86 -1.92,0.06 -3.78,0.42 -4.98,1.14 -0.96,0.6 -1.62,1.38 -1.62,3.06 0,1.38 0.54,1.98 1.14,2.34 0.84,0.54 1.86,0.66 2.1,0.72 l 0.24,0 c 1.92,0.12 5.82,0 9.24,1.2 4.26,1.44 7.68,4.92 7.68,11.34 -0.12,5.58 -3.24,9.78 -8.76,11.52 -5.04,1.5 -11.82,0.9 -19.98,-1.38 -2.1,-0.6 0.06,-8.22 2.16,-7.62 7.62,2.16 12.66,2.22 15.48,1.38 2.34,-0.72 3.18,-1.98 3.18,-4.02 0,-1.5 -0.36,-2.28 -0.66,-2.64 -0.3,-0.42 -0.78,-0.84 -1.68,-1.14 -0.9,-0.3 -2.04,-0.48 -3.36,-0.6 -0.72,-0.06 -1.38,-0.06 -1.98,-0.12 l -1.74,0 z"
         style=""
         id="path3353" />
      <path
         d="m 187.17917,527.29863 -0.12,-0.06 c -1.26,-0.06 -3.78,-0.48 -6.06,-1.92 -2.58,-1.68 -4.74,-4.62 -4.8,-9 0.06,-4.68 2.34,-7.92 5.52,-9.84 2.88,-1.74 6.3,-2.22 9,-2.22 4.92,0.06 9.12,1.14 12.12,2.46 1.98,0.9 -1.2,8.16 -3.18,7.26 -2.1,-0.9 -5.22,-1.8 -8.94,-1.86 -1.92,0.06 -3.78,0.42 -4.98,1.14 -0.96,0.6 -1.62,1.38 -1.62,3.06 0,1.38 0.54,1.98 1.14,2.34 0.84,0.54 1.86,0.66 2.1,0.72 l 0.24,0 c 1.92,0.12 5.82,0 9.24,1.2 4.26,1.44 7.68,4.92 7.68,11.34 -0.12,5.58 -3.24,9.78 -8.76,11.52 -5.04,1.5 -11.82,0.9 -19.98,-1.38 -2.1,-0.6 0.06,-8.22 2.16,-7.62 7.62,2.16 12.66,2.22 15.48,1.38 2.34,-0.72 3.18,-1.98 3.18,-4.02 0,-1.5 -0.36,-2.28 -0.66,-2.64 -0.3,-0.42 -0.78,-0.84 -1.68,-1.14 -0.9,-0.3 -2.04,-0.48 -3.36,-0.6 -0.72,-0.06 -1.38,-0.06 -1.98,-0.12 l -1.74,0 z"
         style=""
         id="path3355" />
      <path
         d="m 210.44698,507.37863 c 5.34,-2.04 8.88,-3.12 16.26,-3.12 9.66,0 17.52,7.86 17.52,17.58 l 0,4.86 c 0,9.72 -7.86,17.58 -17.52,17.58 l -1.44,0 c -2.46,0 -4.8,-0.54 -6.96,-1.44 l 0,15.9 c 0,1.2 -7.86,1.2 -7.86,0 l 0,-51.36 z m 25.92,14.46 c 0,-5.34 -4.32,-9.72 -9.66,-9.72 l -1.44,0 c -3,0.18 -4.74,0.78 -6.96,1.62 l 0,19.74 c 1.8,1.8 4.26,2.94 6.96,2.94 l 1.44,0 c 5.34,0 9.66,-4.38 9.66,-9.72 l 0,-4.86 z"
         style=""
         id="path3357" />
      <path
         d="m 298.3376,507.43863 c 10.38,-4.68 19.5,-2.82 19.68,-2.82 1.98,0.48 -0.3,7.92 -1.68,7.68 -0.54,-0.12 -1.2,-0.18 -1.8,-0.18 l -1.38,0 c -3,0.18 -4.8,0.78 -6.96,1.62 l 0,29.64 c 0,1.2 -7.86,1.2 -7.86,0 l 0,-35.94 z"
         style=""
         id="path3359" />
      <path
         d="m 329.00698,511.51863 -5.16,0 c -1.2,0 -1.2,-7.26 0,-7.26 l 5.16,0 0,-10.68 c 0,-1.14 7.86,-1.14 7.86,0 l 0,10.68 7.32,0 c 1.2,0 1.2,7.26 0,7.26 l -7.32,0 0,21.96 c 0,3.18 2.52,2.94 5.7,2.94 l 1.62,0 c 1.2,0 1.2,7.86 0,7.86 l -1.62,0 c -8.7,0 -13.56,-1.38 -13.56,-10.26 l 0,-22.5 z"
         style=""
         id="path3361" />
    </g>
    <g
       id="g3588"
       transform="matrix(.95818 0 0 .95818 247.37 503.18)">
      <path
         id="path3590"
         d="m24 48c-13.233 0-24-10.767-24-24s10.767-24 24-24 24 10.767 24 24-10.767 24-24 24zm0-46c-12.131 0-22 9.869-22 22s9.869 22 22 22 22-9.869 22-22-9.869-22-22-22z" />
      <path
         id="path3592"
         d="m24 48c-7.958 0-14.431-10.767-14.431-24s6.473-24 14.431-24 14.432 10.767 14.432 24-6.474 24-14.432 24zm0-46c-6.854 0-12.431 9.869-12.431 22s5.577 22 12.431 22 12.432-9.869 12.432-22-5.578-22-12.432-22z" />
      <path
         id="path3594"
         d="m24 48c-0.552 0-1-0.447-1-1v-46c0-0.552 0.448-1 1-1 0.553 0 1 0.448 1 1v46c0 0.553-0.447 1-1 1z" />
      <path
         id="path3596"
         d="m47 25h-46c-0.552 0-1-0.447-1-1 0-0.552 0.448-1 1-1h46c0.553 0 1 0.448 1 1 0 0.553-0.447 1-1 1z" />
      <g
         id="g3598">
        <path
           id="path3600"
           d="m43.617 13.852h-39.233c-0.552 0-1-0.448-1-1s0.448-1 1-1h39.233c0.553 0 1 0.448 1 1s-0.447 1-1 1z" />
        <path
           id="path3602"
           d="m43.617 36.148h-39.233c-0.552 0-1-0.447-1-1s0.448-1 1-1h39.233c0.553 0 1 0.447 1 1s-0.447 1-1 1z" />
      </g>
    </g>
  </g>
</svg>
